<?xml version="1.0" encoding="UTF-8" standalone="yes"?><svg xmlns="http://www.w3.org/2000/svg" xmlns:xlink="http://www.w3.org/1999/xlink" height="271.2px" style="width:140px;height:271px;" version="1.1" viewBox="0 0 140 271" width="140.4px"><defs/><g><ellipse cx="72.9" cy="12" fill="#000000" rx="6" ry="6" style="stroke: none; stroke-width: 0.6000000238418579;"/><rect fill="#F8F8F8" height="20.4797" style="stroke: #383838; stroke-width: 0.9000000357627869;" width="58.2" x="43.8" y="30"/><text fill="#000000" font-family="sans-serif" font-size="7.2" lengthAdjust="spacingAndGlyphs" textLength="43.8" x="52.2" y="42.9609">Зображення</text><rect fill="#F8F8F8" height="28.9594" rx="7.5" ry="7.5" style="stroke: #383838; stroke-width: 0.9000000357627869;" width="106.8" x="19.5" y="62.4797"/><text fill="#000000" font-family="sans-serif" font-size="7.2" lengthAdjust="spacingAndGlyphs" textLength="92.4" x="27.9" y="75.4406">Для кожного зображення</text><text fill="#000000" font-family="sans-serif" font-size="7.2" lengthAdjust="spacingAndGlyphs" textLength="83.4" x="32.7" y="83.9203">знайти "ключові" точки</text><rect fill="#F8F8F8" height="28.9594" rx="7.5" ry="7.5" style="stroke: #383838; stroke-width: 0.9000000357627869;" width="133.8" x="6" y="103.4391"/><text fill="#000000" font-family="sans-serif" font-size="7.2" lengthAdjust="spacingAndGlyphs" textLength="119.4" x="14.4" y="116.4">Знайти множини відповідностей</text><text fill="#000000" font-family="sans-serif" font-size="7.2" lengthAdjust="spacingAndGlyphs" textLength="61.8" x="38.4" y="124.8797">"ключових" точок</text><rect fill="#F8F8F8" height="28.9594" rx="7.5" ry="7.5" style="stroke: #383838; stroke-width: 0.9000000357627869;" width="106.8" x="19.5" y="144.3984"/><text fill="#000000" font-family="sans-serif" font-size="7.2" lengthAdjust="spacingAndGlyphs" textLength="92.4" x="27.9" y="157.3594">Отфільтровати помилкові</text><text fill="#000000" font-family="sans-serif" font-size="7.2" lengthAdjust="spacingAndGlyphs" textLength="47.4" x="51.9" y="165.8391">відповідності</text><rect fill="#F8F8F8" height="28.9594" rx="7.5" ry="7.5" style="stroke: #383838; stroke-width: 0.9000000357627869;" width="123" x="11.4" y="185.3578"/><text fill="#000000" font-family="sans-serif" font-size="7.2" lengthAdjust="spacingAndGlyphs" textLength="95.4" x="24.6" y="198.3188">Вирішити систему рівнянь</text><text fill="#000000" font-family="sans-serif" font-size="7.2" lengthAdjust="spacingAndGlyphs" textLength="111" x="17.4" y="206.7984">для знаходження хмара точок</text><rect fill="#F8F8F8" height="20.4797" style="stroke: #383838; stroke-width: 0.9000000357627869;" width="57.6" x="44.1" y="226.3172"/><text fill="#000000" font-family="sans-serif" font-size="7.2" lengthAdjust="spacingAndGlyphs" textLength="45.6" x="50.1" y="239.2781">Хмара точок</text><ellipse cx="72.9" cy="264.7969" fill="none" rx="6" ry="6" style="stroke: #000000; stroke-width: 0.6000000238418579;"/><ellipse cx="73.2" cy="265.0969" fill="#000000" rx="3.6" ry="3.6" style="stroke: none; stroke-width: 0.6000000238418579;"/><line style="stroke: #383838; stroke-width: 0.9000000357627869;" x1="72.9" x2="72.9" y1="18" y2="30"/><polygon fill="#383838" points="70.5,24,72.9,30,75.3,24,72.9,26.4" style="stroke: #383838; stroke-width: 0.6000000238418579;"/><line style="stroke: #383838; stroke-width: 0.9000000357627869;" x1="72.9" x2="72.9" y1="50.4797" y2="62.4797"/><polygon fill="#383838" points="70.5,56.4797,72.9,62.4797,75.3,56.4797,72.9,58.8797" style="stroke: #383838; stroke-width: 0.6000000238418579;"/><line style="stroke: #383838; stroke-width: 0.9000000357627869;" x1="72.9" x2="72.9" y1="91.4391" y2="103.4391"/><polygon fill="#383838" points="70.5,97.4391,72.9,103.4391,75.3,97.4391,72.9,99.8391" style="stroke: #383838; stroke-width: 0.6000000238418579;"/><line style="stroke: #383838; stroke-width: 0.9000000357627869;" x1="72.9" x2="72.9" y1="132.3984" y2="144.3984"/><polygon fill="#383838" points="70.5,138.3984,72.9,144.3984,75.3,138.3984,72.9,140.7984" style="stroke: #383838; stroke-width: 0.6000000238418579;"/><line style="stroke: #383838; stroke-width: 0.9000000357627869;" x1="72.9" x2="72.9" y1="173.3578" y2="185.3578"/><polygon fill="#383838" points="70.5,179.3578,72.9,185.3578,75.3,179.3578,72.9,181.7578" style="stroke: #383838; stroke-width: 0.6000000238418579;"/><line style="stroke: #383838; stroke-width: 0.9000000357627869;" x1="72.9" x2="72.9" y1="214.3172" y2="226.3172"/><polygon fill="#383838" points="70.5,220.3172,72.9,226.3172,75.3,220.3172,72.9,222.7172" style="stroke: #383838; stroke-width: 0.6000000238418579;"/><line style="stroke: #383838; stroke-width: 0.9000000357627869;" x1="72.9" x2="72.9" y1="246.7969" y2="258.7969"/><polygon fill="#383838" points="70.5,252.7969,72.9,258.7969,75.3,252.7969,72.9,255.1969" style="stroke: #383838; stroke-width: 0.6000000238418579;"/></g></svg>