<?xml version="1.0" encoding="UTF-8" standalone="yes"?><svg xmlns="http://www.w3.org/2000/svg" xmlns:xlink="http://www.w3.org/1999/xlink" height="452px" style="width:234px;height:452px;" version="1.1" viewBox="0 0 234 452" width="234px"><defs/><g><ellipse cx="121.5" cy="20" fill="#000000" rx="10" ry="10" style="stroke: none; stroke-width: 1.0;"/><rect fill="#F8F8F8" height="34.1328" style="stroke: #383838; stroke-width: 1.5;" width="97" x="73" y="50"/><text fill="#000000" font-family="sans-serif" font-size="12" lengthAdjust="spacingAndGlyphs" textLength="73" x="87" y="71.6016">Зображення</text><rect fill="#F8F8F8" height="48.2656" rx="12.5" ry="12.5" style="stroke: #383838; stroke-width: 1.5;" width="178" x="32.5" y="104.1328"/><text fill="#000000" font-family="sans-serif" font-size="12" lengthAdjust="spacingAndGlyphs" textLength="154" x="46.5" y="125.7344">Для кожного зображення</text><text fill="#000000" font-family="sans-serif" font-size="12" lengthAdjust="spacingAndGlyphs" textLength="139" x="54.5" y="139.8672">знайти "ключові" точки</text><rect fill="#F8F8F8" height="48.2656" rx="12.5" ry="12.5" style="stroke: #383838; stroke-width: 1.5;" width="223" x="10" y="172.3984"/><text fill="#000000" font-family="sans-serif" font-size="12" lengthAdjust="spacingAndGlyphs" textLength="199" x="24" y="194">Знайти множини відповідностей</text><text fill="#000000" font-family="sans-serif" font-size="12" lengthAdjust="spacingAndGlyphs" textLength="103" x="64" y="208.1328">"ключових" точок</text><rect fill="#F8F8F8" height="48.2656" rx="12.5" ry="12.5" style="stroke: #383838; stroke-width: 1.5;" width="178" x="32.5" y="240.6641"/><text fill="#000000" font-family="sans-serif" font-size="12" lengthAdjust="spacingAndGlyphs" textLength="154" x="46.5" y="262.2656">Відфільтрувати помилкові</text><text fill="#000000" font-family="sans-serif" font-size="12" lengthAdjust="spacingAndGlyphs" textLength="79" x="86.5" y="276.3984">відповідності</text><rect fill="#F8F8F8" height="48.2656" rx="12.5" ry="12.5" style="stroke: #383838; stroke-width: 1.5;" width="206" x="18.5" y="308.9297"/><text fill="#000000" font-family="sans-serif" font-size="12" lengthAdjust="spacingAndGlyphs" textLength="159" x="40.5" y="330.5313">Вирішити систему рівнянь</text><text fill="#000000" font-family="sans-serif" font-size="12" lengthAdjust="spacingAndGlyphs" textLength="186" x="28.5" y="344.6641">для знаходження хмари точок</text><rect fill="#F8F8F8" height="34.1328" style="stroke: #383838; stroke-width: 1.5;" width="96" x="73.5" y="377.1953"/><text fill="#000000" font-family="sans-serif" font-size="12" lengthAdjust="spacingAndGlyphs" textLength="76" x="83.5" y="398.7969">Хмара точок</text><ellipse cx="121.5" cy="441.3281" fill="none" rx="10" ry="10" style="stroke: #000000; stroke-width: 1.0;"/><ellipse cx="122" cy="441.8281" fill="#000000" rx="6" ry="6" style="stroke: none; stroke-width: 1.0;"/><line style="stroke: #383838; stroke-width: 1.5;" x1="121.5" x2="121.5" y1="30" y2="50"/><polygon fill="#383838" points="117.5,40,121.5,50,125.5,40,121.5,44" style="stroke: #383838; stroke-width: 1.0;"/><line style="stroke: #383838; stroke-width: 1.5;" x1="121.5" x2="121.5" y1="84.1328" y2="104.1328"/><polygon fill="#383838" points="117.5,94.1328,121.5,104.1328,125.5,94.1328,121.5,98.1328" style="stroke: #383838; stroke-width: 1.0;"/><line style="stroke: #383838; stroke-width: 1.5;" x1="121.5" x2="121.5" y1="152.3984" y2="172.3984"/><polygon fill="#383838" points="117.5,162.3984,121.5,172.3984,125.5,162.3984,121.5,166.3984" style="stroke: #383838; stroke-width: 1.0;"/><line style="stroke: #383838; stroke-width: 1.5;" x1="121.5" x2="121.5" y1="220.6641" y2="240.6641"/><polygon fill="#383838" points="117.5,230.6641,121.5,240.6641,125.5,230.6641,121.5,234.6641" style="stroke: #383838; stroke-width: 1.0;"/><line style="stroke: #383838; stroke-width: 1.5;" x1="121.5" x2="121.5" y1="288.9297" y2="308.9297"/><polygon fill="#383838" points="117.5,298.9297,121.5,308.9297,125.5,298.9297,121.5,302.9297" style="stroke: #383838; stroke-width: 1.0;"/><line style="stroke: #383838; stroke-width: 1.5;" x1="121.5" x2="121.5" y1="357.1953" y2="377.1953"/><polygon fill="#383838" points="117.5,367.1953,121.5,377.1953,125.5,367.1953,121.5,371.1953" style="stroke: #383838; stroke-width: 1.0;"/><line style="stroke: #383838; stroke-width: 1.5;" x1="121.5" x2="121.5" y1="411.3281" y2="431.3281"/><polygon fill="#383838" points="117.5,421.3281,121.5,431.3281,125.5,421.3281,121.5,425.3281" style="stroke: #383838; stroke-width: 1.0;"/></g></svg>