<?xml version="1.0" standalone="no"?><!DOCTYPE svg PUBLIC "-//W3C//DTD SVG 1.1//EN" "http://www.w3.org/Graphics/SVG/1.1/DTD/svg11.dtd"><svg xmlns:xlink="http://www.w3.org/1999/xlink" xmlns="http://www.w3.org/2000/svg" version="1.1" width="1280" height="400"><defs><clipPath id="highcharts-7"><rect rx="0" ry="0" fill="none" x="0" y="0" width="9999" height="400" stroke-width="0.000001"></rect></clipPath><clipPath id="highcharts-8"><rect fill="none" x="0" y="0" width="1051" height="362"></rect></clipPath></defs><rect rx="5" ry="5" fill="#FFFFFF" x="0" y="0" width="1280" height="400" stroke-width="0.000001"></rect><path fill="none" d="M 80 332.5 L 1131 332.5" stroke="#808080" stroke-width="1"></path><g class="highcharts-grid" ></g><g class="highcharts-grid" ><path fill="none" d="M 80 332.5 L 1131 332.5" stroke="#C0C0C0" stroke-width="1" ></path><path fill="none" d="M 80 292.5 L 1131 292.5" stroke="#C0C0C0" stroke-width="1" ></path><path fill="none" d="M 80 251.5 L 1131 251.5" stroke="#C0C0C0" stroke-width="1" ></path><path fill="none" d="M 80 211.5 L 1131 211.5" stroke="#C0C0C0" stroke-width="1" ></path><path fill="none" d="M 80 171.5 L 1131 171.5" stroke="#C0C0C0" stroke-width="1" ></path><path fill="none" d="M 80 131.5 L 1131 131.5" stroke="#C0C0C0" stroke-width="1" ></path><path fill="none" d="M 80 90.5 L 1131 90.5" stroke="#C0C0C0" stroke-width="1" ></path><path fill="none" d="M 80 50.5 L 1131 50.5" stroke="#C0C0C0" stroke-width="1" ></path><path fill="none" d="M 80 10.5 L 1131 10.5" stroke="#C0C0C0" stroke-width="1" ></path><path fill="none" d="M 80 372.5 L 1131 372.5" stroke="#C0C0C0" stroke-width="1" ></path></g><g class="highcharts-axis" ><path fill="none" d="M 379.5 372 L 379.5 377" stroke="#C0D0E0" stroke-width="1"></path><path fill="none" d="M 529.5 372 L 529.5 377" stroke="#C0D0E0" stroke-width="1"></path><path fill="none" d="M 680.5 372 L 680.5 377" stroke="#C0D0E0" stroke-width="1"></path><path fill="none" d="M 830.5 372 L 830.5 377" stroke="#C0D0E0" stroke-width="1"></path><path fill="none" d="M 980.5 372 L 980.5 377" stroke="#C0D0E0" stroke-width="1"></path><path fill="none" d="M 1130.5 372 L 1130.5 377" stroke="#C0D0E0" stroke-width="1"></path><path fill="none" d="M 229.5 372 L 229.5 377" stroke="#C0D0E0" stroke-width="1"></path><path fill="none" d="M 80 372.5 L 1131 372.5" stroke="#C0D0E0" stroke-width="1"  visibility="visible"></path></g><g class="highcharts-axis" ><text x="24.265625" y="191" style="font-family:'lucida grande', 'lucida sans unicode', verdana, arial, helvetica, sans-serif;font-size:12px;color:#6d869f;font-weight:bold;fill:#6d869f;"  transform="rotate(270 24.265625 191)" text-anchor="middle" visibility="visible"><tspan x="24.265625">$</tspan></text></g><g class="highcharts-series-group" ><g class="highcharts-series" visibility="visible"  transform="translate(80,10)" clip-path="url(#highcharts-8)"><path fill="none" d="M 75.07142857142857 318.6 L 225.21428571428572 302.5 L 375.35714285714283 302.5 L 525.5 302.5 L 675.6428571428571 302.5 L 825.7857142857142 254.2 L 975.9285714285714 254.2" stroke="black" stroke-width="5"   stroke-opacity="0.049999999999999  996" transform="translate(1, 1)"></path><path fill="none" d="M 75.07142857142857 318.6 L 225.21428571428572 302.5 L 375.35714285714283 302.5 L 525.5 302.5 L 675.6428571428571 302.5 L 825.7857142857142 254.2 L 975.9285714285714 254.2" stroke="black" stroke-width="3"   stroke-opacity="0.09999999999999999" transform="translate(1, 1)"></path><path fill="none" d="M 75.07142857142857 318.6 L 225.21428571428572 302.5 L 375.35714285714283 302.5 L 525.5 302.5 L 675.6428571428571 302.5 L 825.7857142857142 254.2 L 975.9285714285714 254.2" stroke="black" stroke-width="1"   stroke-opacity="0.15" transform="translate(1, 1)"></path><path fill="none" d="M 75.07142857142857 318.6 L 225.21428571428572 302.5 L 375.35714285714283 302.5 L 525.5 302.5 L 675.6428571428571 302.5 L 825.7857142857142 254.2 L 975.9285714285714 254.2" stroke="#4572A7" stroke-width="2" ></path></g><g class="highcharts-markers" visibility="visible"  transform="translate(80,10)" clip-path="none"><path fill="#4572A7" d="M 975.9285714285714 250.2 C 981.2565714285714 250.2 981.2565714285714 258.2 975.9285714285714 258.2 C 970.6005714285715 258.2 970.6005714285715 250.2 975.9285714285714 250.2 Z" stroke="#FFFFFF" stroke-width="0.000001"></path><path fill="#4572A7" d="M 825.7857142857142 250.2 C 831.1137142857142 250.2 831.1137142857142 258.2 825.7857142857142 258.2 C 820.4577142857142 258.2 820.4577142857142 250.2 825.7857142857142 250.2 Z" stroke="#FFFFFF" stroke-width="0.000001"></path><path fill="#4572A7" d="M 675.6428571428571 298.5 C 680.9708571428571 298.5 680.9708571428571 306.5 675.6428571428571 306.5 C 670.3148571428571 306.5 670.3148571428571 298.5 675.6428571428571 298.5 Z" stroke="#FFFFFF" stroke-width="0.000001"></path><path fill="#4572A7" d="M 525.5 298.5 C 530.828 298.5 530.828 306.5 525.5 306.5 C 520.172 306.5 520.172 298.5 525.5 298.5 Z" stroke="#FFFFFF" stroke-width="0.000001"></path><path fill="#4572A7" d="M 375.35714285714283 298.5 C 380.6851428571428 298.5 380.6851428571428 306.5 375.35714285714283 306.5 C 370.02914285714286 306.5 370.02914285714286 298.5 375.35714285714283 298.5 Z" stroke="#FFFFFF" stroke-width="0.000001"></path><path fill="#4572A7" d="M 225.21428571428572 298.5 C 230.54228571428573 298.5 230.54228571428573 306.5 225.21428571428572 306.5 C 219.88628571428572 306.5 219.88628571428572 298.5 225.21428571428572 298.5 Z" stroke="#FFFFFF" stroke-width="0.000001"></path><path fill="#4572A7" d="M 75.07142857142857 314.6 C 80.39942857142857 314.6 80.39942857142857 322.6 75.07142857142857 322.6 C 69.74342857142857 322.6 69.74342857142857 314.6 75.07142857142857 314.6 Z" stroke="#FFFFFF" stroke-width="0.000001"></path></g><g class="highcharts-series" visibility="visible"  transform="translate(80,10)" clip-path="url(#highcharts-8)"><path fill="none" d="M 75.07142857142857 321.8 L 225.21428571428572 308.9 L 375.35714285714283 283.2 L 525.5 257.4 L 675.6428571428571 193.1 L 825.7857142857142 160.9 L 975.9285714285714 48.3" stroke="black" stroke-width="5"   stroke-opacity="0.049999999999999996" transform="translate(1, 1)"></path><path fill="none" d="M 75.07142857142857 321.8 L 225.21428571428572 308.9 L 375.35714285714283 283.2 L 525.5 257.4 L 675.6428571428571 193.1 L 825.7857142857142 160.9 L 975.9285714285714 48.3" stroke="black" stroke-width="3"   stroke-opacity="0.09999999999999999" transform="translate(1, 1)"></path><path fill="none" d="M 75.07142857142857 321.8 L 225.21428571428572 308.9 L 375.35714285714283 283.2 L 525.5 257.4 L 675.6428571428571 193.1 L 825.7857142857142 160.9 L 975.9285714285714 48.3" stroke="black" stroke-width="1"   stroke-opacity="0.15" transform="translate(1, 1)"></path><path fill="none" d="M 75.07142857142857 321.8 L 225.21428571428572 308.9 L 375.35714285714283 283.2 L 525.5 257.4 L 675.6428571428571 193.1 L 825.7857142857142 160.9 L 975.9285714285714 48.3" stroke="#AA4643" stroke-width="2" ></path></g><g class="highcharts-markers" visibility="visible"  transform="translate(80,10)" clip-path="none"><path fill="#AA4643" d="M 975.9285714285714 44.3 L 979.9285714285714 48.3 975.9285714285714 52.3 971.9285714285714 48.3 Z" stroke="#FFFFFF" stroke-width="0.000001"></path><path fill="#AA4643" d="M 825.7857142857142 156.9 L 829.7857142857142 160.9 825.7857142857142 164.9 821.7857142857142 160.9 Z" stroke="#FFFFFF" stroke-width="0.000001"></path><path fill="#AA4643" d="M 675.6428571428571 189.1 L 679.6428571428571 193.1 675.6428571428571 197.1 671.6428571428571 193.1 Z" stroke="#FFFFFF" stroke-width="0.000001"></path><path fill="#AA4643" d="M 525.5 253.39999999999998 L 529.5 257.4 525.5 261.4 521.5 257.4 Z" stroke="#FFFFFF" stroke-width="0.000001"></path><path fill="#AA4643" d="M 375.35714285714283 279.2 L 379.35714285714283 283.2 375.35714285714283 287.2 371.35714285714283 283.2 Z" stroke="#FFFFFF" stroke-width="0.000001"></path><path fill="#AA4643" d="M 225.21428571428572 304.9 L 229.21428571428572 308.9 225.21428571428572 312.9 221.21428571428572 308.9 Z" stroke="#FFFFFF" stroke-width="0.000001"></path><path fill="#AA4643" d="M 75.07142857142857 317.8 L 79.07142857142857 321.8 75.07142857142857 325.8 71.07142857142857 321.8 Z" stroke="#FFFFFF" stroke-width="0.000001"></path></g><g class="highcharts-series" visibility="visible"  transform="translate(80,10)" clip-path="url(#highcharts-8)"><path fill="none" d="M 75.07142857142857 321.8 L 225.21428571428572 321.8 L 375.35714285714283 305.7 L 525.5 273.5 L 675.6428571428571 257.4 L 825.7857142857142 249.4 L 975.9285714285714 201.1" stroke="black" stroke-width="5"   stroke-opacity="0.049999999999999996" transform="translate(1, 1)"></path><path fill="none" d="M 75.07142857142857 321.8 L 225.21428571428572 321.8 L 375.35714285714283 305.7 L 525.5 273.5 L 675.6428571428571 257.4 L 825.7857142857142 249.4 L 975.9285714285714 201.1" stroke="black" stroke-width="3"   stroke-opacity="0.09999999999999999" transform="translate(1, 1)"></path><path fill="none" d="M 75.07142857142857 321.8 L 225.21428571428572 321.8 L 375.35714285714283 305.7 L 525.5 273.5 L 675.6428571428571 257.4 L 825.7857142857142 249.4 L 975.9285714285714 201.1" stroke="black" stroke-width="1"   stroke-opacity="0.15" transform="translate(1, 1)"></path><path fill="none" d="M 75.07142857142857 321.8 L 225.21428571428572 321.8 L 375.35714285714283 305.7 L 525.5 273.5 L 675.6428571428571 257.4 L 825.7857142857142 249.4 L 975.9285714285714 201.1" stroke="#89A54E" stroke-width="2" ></path></g><g class="highcharts-markers" visibility="visible"  transform="translate(80,10)" clip-path="none"><path fill="#89A54E" d="M 971.9285714285714 197.1 L 979.9285714285714 197.1 979.9285714285714 205.1 971.9285714285714 205.1 Z" stroke="#FFFFFF" stroke-width="0.000001"></path><path fill="#89A54E" d="M 821.7857142857142 245.4 L 829.7857142857142 245.4 829.7857142857142 253.4 821.7857142857142 253.4 Z" stroke="#FFFFFF" stroke-width="0.000001"></path><path fill="#89A54E" d="M 671.6428571428571 253.39999999999998 L 679.6428571428571 253.39999999999998 679.6428571428571 261.4 671.6428571428571 261.4 Z" stroke="#FFFFFF" stroke-width="0.000001"></path><path fill="#89A54E" d="M 521.5 269.5 L 529.5 269.5 529.5 277.5 521.5 277.5 Z" stroke="#FFFFFF" stroke-width="0.000001"></path><path fill="#89A54E" d="M 371.35714285714283 301.7 L 379.35714285714283 301.7 379.35714285714283 309.7 371.35714285714283 309.7 Z" stroke="#FFFFFF" stroke-width="0.000001"></path><path fill="#89A54E" d="M 221.21428571428572 317.8 L 229.21428571428572 317.8 229.21428571428572 325.8 221.21428571428572 325.8 Z" stroke="#FFFFFF" stroke-width="0.000001"></path><path fill="#89A54E" d="M 71.07142857142857 317.8 L 79.07142857142857 317.8 79.07142857142857 325.8 71.07142857142857 325.8 Z" stroke="#FFFFFF" stroke-width="0.000001"></path></g><g class="highcharts-series" visibility="visible"  transform="translate(80,10)" clip-path="url(#highcharts-8)"><path fill="none" d="M 75.07142857142857 319.4 L 225.21428571428572 317.8 L 375.35714285714283 304.1 L 525.5 308.9 L 675.6428571428571 312.1 L 825.7857142857142 299.3 L 975.9285714285714 299.3" stroke="black" stroke-width="5"   stroke-opacity="0.049999999999999996" transform="translate(1, 1)"></path><path fill="none" d="M 75.07142857142857 319.4 L 225.21428571428572 317.8 L 375.35714285714283 304.1 L 525.5 308.9 L 675.6428571428571 312.1 L 825.7857142857142 299.3 L 975.9285714285714 299.3" stroke="black" stroke-width="3"   stroke-opacity="0.09999999999999999" transform="translate(1, 1)"></path><path fill="none" d="M 75.07142857142857 319.4 L 225.21428571428572 317.8 L 375.35714285714283 304.1 L 525.5 308.9 L 675.6428571428571 312.1 L 825.7857142857142 299.3 L 975.9285714285714 299.3" stroke="black" stroke-width="1"   stroke-opacity="0.15" transform="translate(1, 1)"></path><path fill="none" d="M 75.07142857142857 319.4 L 225.21428571428572 317.8 L 375.35714285714283 304.1 L 525.5 308.9 L 675.6428571428571 312.1 L 825.7857142857142 299.3 L 975.9285714285714 299.3" stroke="#80699B" stroke-width="2" ></path></g><g class="highcharts-markers" visibility="visible"  transform="translate(80,10)" clip-path="none"><path fill="#80699B" d="M 975.9285714285714 295.3 L 979.9285714285714 303.3 971.9285714285714 303.3 Z" stroke="#FFFFFF" stroke-width="0.000001"></path><path fill="#80699B" d="M 825.7857142857142 295.3 L 829.7857142857142 303.3 821.7857142857142 303.3 Z" stroke="#FFFFFF" stroke-width="0.000001"></path><path fill="#80699B" d="M 675.6428571428571 308.1 L 679.6428571428571 316.1 671.6428571428571 316.1 Z" stroke="#FFFFFF" stroke-width="0.000001"></path><path fill="#80699B" d="M 525.5 304.9 L 529.5 312.9 521.5 312.9 Z" stroke="#FFFFFF" stroke-width="0.000001"></path><path fill="#80699B" d="M 375.35714285714283 300.1 L 379.35714285714283 308.1 371.35714285714283 308.1 Z" stroke="#FFFFFF" stroke-width="0.000001"></path><path fill="#80699B" d="M 225.21428571428572 313.8 L 229.21428571428572 321.8 221.21428571428572 321.8 Z" stroke="#FFFFFF" stroke-width="0.000001"></path><path fill="#80699B" d="M 75.07142857142857 315.4 L 79.07142857142857 323.4 71.07142857142857 323.4 Z" stroke="#FFFFFF" stroke-width="0.000001"></path></g></g><g class="highcharts-legend"  transform="translate(1141,110)"><g  clip-path="url(#highcharts-7)"><g><g class="highcharts-legend-item"  transform="translate(8,3)"><path fill="none" d="M 0 11 L 16 11" stroke-width="2" stroke="#4572A7"></path><path fill="#4572A7" d="M 8 7 C 13.328 7 13.328 15 8 15 C 2.6719999999999997 15 2.6719999999999997 7 8 7 Z" stroke="#FFFFFF" stroke-width="0.000001"></path><text x="21" y="15" style="font-family:'lucida grande', 'lucida sans unicode', verdana, arial, helvetica, sans-serif;font-size:12px;cursor:pointer;color:#3e576f;fill:#3e576f;" text-anchor="start" ><tspan x="21">Инвестиции</tspan></text></g><g class="highcharts-legend-item"  transform="translate(8,17.140625)"><path fill="none" d="M 0 11 L 16 11" stroke-width="2" stroke="#AA4643"></path><path fill="#AA4643" d="M 8 7 L 12 11 8 15 4 11 Z" stroke="#FFFFFF" stroke-width="0.000001"></path><text x="21" y="15" style="font-family:'lucida grande', 'lucida sans unicode', verdana, arial, helvetica, sans-serif;font-size:12px;cursor:pointer;color:#3e576f;fill:#3e576f;" text-anchor="start" ><tspan x="21">Капитализация</tspan></text></g><g class="highcharts-legend-item"  transform="translate(8,31.28125)"><path fill="none" d="M 0 11 L 16 11" stroke-width="2" stroke="#89A54E"></path><path fill="#89A54E" d="M 4 7 L 12 7 12 15 4 15 Z" stroke="#FFFFFF" stroke-width="0.000001"></path><text x="21" y="15" style="font-family:'lucida grande', 'lucida sans unicode', verdana, arial, helvetica, sans-serif;font-size:12px;cursor:pointer;color:#3e576f;fill:#3e576f;" text-anchor="start" ><tspan x="21">Доходы</tspan></text></g><g class="highcharts-legend-item"  transform="translate(8,45.421875)"><path fill="none" d="M 0 11 L 16 11" stroke-width="2" stroke="#80699B"></path><path fill="#80699B" d="M 8 7 L 12 15 4 15 Z" stroke="#FFFFFF" stroke-width="0.000001"></path><text x="21" y="15" style="font-family:'lucida grande', 'lucida sans unicode', verdana, arial, helvetica, sans-serif;font-size:12px;cursor:pointer;color:#3e576f;fill:#3e576f;" text-anchor="start" ><tspan x="21">Расходы</tspan></text></g></g></g></g><g class="highcharts-axis-labels" ><text x="155.07142857142856" y="386" style="font-family:'lucida grande', 'lucida sans unicode', verdana, arial, helvetica, sans-serif;font-size:11px;width:130px;color:#666;line-height:14px;fill:#666;" text-anchor="middle"><tspan x="155.07142857142856">Q1</tspan></text><text x="305.2142857142857" y="386" style="font-family:'lucida grande', 'lucida sans unicode', verdana, arial, helvetica, sans-serif;font-size:11px;width:130px;color:#666;line-height:14px;fill:#666;" text-anchor="middle"><tspan x="305.2142857142857">Q3</tspan></text><text x="455.3571428571428" y="386" style="font-family:'lucida grande', 'lucida sans unicode', verdana, arial, helvetica, sans-serif;font-size:11px;width:130px;color:#666;line-height:14px;fill:#666;" text-anchor="middle"><tspan x="455.3571428571428">Q5</tspan></text><text x="605.5" y="386" style="font-family:'lucida grande', 'lucida sans unicode', verdana, arial, helvetica, sans-serif;font-size:11px;width:130px;color:#666;line-height:14px;fill:#666;" text-anchor="middle"><tspan x="605.5">Q7</tspan></text><text x="755.6428571428571" y="386" style="font-family:'lucida grande', 'lucida sans unicode', verdana, arial, helvetica, sans-serif;font-size:11px;width:130px;color:#666;line-height:14px;fill:#666;" text-anchor="middle"><tspan x="755.6428571428571">Q9</tspan></text><text x="905.7857142857142" y="386" style="font-family:'lucida grande', 'lucida sans unicode', verdana, arial, helvetica, sans-serif;font-size:11px;width:130px;color:#666;line-height:14px;fill:#666;" text-anchor="middle"><tspan x="905.7857142857142">Q11</tspan></text><text x="1055.9285714285713" y="386" style="font-family:'lucida grande', 'lucida sans unicode', verdana, arial, helvetica, sans-serif;font-size:11px;width:130px;color:#666;line-height:14px;fill:#666;" text-anchor="middle"><tspan x="1055.9285714285713">Q13</tspan></text></g><g class="highcharts-axis-labels" ><text x="72" y="378.115625" style="font-family:'lucida grande', 'lucida sans unicode', verdana, arial, helvetica, sans-serif;font-size:11px;width:506px;color:#666;line-height:14px;fill:#666;" text-anchor="end"><tspan x="72">-250k</tspan></text><text x="72" y="337.8934027777778" style="font-family:'lucida grande', 'lucida sans unicode', verdana, arial, helvetica, sans-serif;font-size:11px;width:506px;color:#666;line-height:14px;fill:#666;" text-anchor="end"><tspan x="72">0k</tspan></text><text x="72" y="297.67118055555557" style="font-family:'lucida grande', 'lucida sans unicode', verdana, arial, helvetica, sans-serif;font-size:11px;width:506px;color:#666;line-height:14px;fill:#666;" text-anchor="end"><tspan x="72">250k</tspan></text><text x="72" y="257.4489583333334" style="font-family:'lucida grande', 'lucida sans unicode', verdana, arial, helvetica, sans-serif;font-size:11px;width:506px;color:#666;line-height:14px;fill:#666;" text-anchor="end"><tspan x="72">500k</tspan></text><text x="72" y="217.2267361111111" style="font-family:'lucida grande', 'lucida sans unicode', verdana, arial, helvetica, sans-serif;font-size:11px;width:506px;color:#666;line-height:14px;fill:#666;" text-anchor="end"><tspan x="72">750k</tspan></text><text x="72" y="177.00451388888888" style="font-family:'lucida grande', 'lucida sans unicode', verdana, arial, helvetica, sans-serif;font-size:11px;width:506px;color:#666;line-height:14px;fill:#666;" text-anchor="end"><tspan x="72">1,000k</tspan></text><text x="72" y="136.78229166666668" style="font-family:'lucida grande', 'lucida sans unicode', verdana, arial, helvetica, sans-serif;font-size:11px;width:506px;color:#666;line-height:14px;fill:#666;" text-anchor="end"><tspan x="72">1,250k</tspan></text><text x="72" y="96.56006944444445" style="font-family:'lucida grande', 'lucida sans unicode', verdana, arial, helvetica, sans-serif;font-size:11px;width:506px;color:#666;line-height:14px;fill:#666;" text-anchor="end"><tspan x="72">1,500k</tspan></text><text x="72" y="56.33784722222223" style="font-family:'lucida grande', 'lucida sans unicode', verdana, arial, helvetica, sans-serif;font-size:11px;width:506px;color:#666;line-height:14px;fill:#666;" text-anchor="end"><tspan x="72">1,750k</tspan></text><text x="72" y="16.115625" style="font-family:'lucida grande', 'lucida sans unicode', verdana, arial, helvetica, sans-serif;font-size:11px;width:506px;color:#666;line-height:14px;fill:#666;" text-anchor="end"><tspan x="72">2,000k</tspan></text></g><g class="highcharts-tooltip"  style="padding:0;white-space:nowrap;" visibility="hidden"><rect rx="5" ry="5" fill="none" x="0" y="0" width="10" height="10" stroke-width="5" fill-opacity="0.85"  stroke="black" stroke-opacity="0.049999999999999996" transform="translate(1, 1)"></rect><rect rx="5" ry="5" fill="none" x="0" y="0" width="10" height="10" stroke-width="3" fill-opacity="0.85"  stroke="black" stroke-opacity="0.09999999999999999" transform="translate(1, 1)"></rect><rect rx="5" ry="5" fill="none" x="0" y="0" width="10" height="10" stroke-width="1" fill-opacity="0.85"  stroke="black" stroke-opacity="0.15" transform="translate(1, 1)"></rect><rect rx="5" ry="5" fill="rgb(255,255,255)" x="0" y="0" width="10" height="10" stroke-width="2" fill-opacity="0.85"></rect><text x="5" y="18" style="font-family:'lucida grande', 'lucida sans unicode', verdana, arial, helvetica, sans-serif;font-size:12px;color:#333333;fill:#333333;" ></text></g><text x="1270" y="395" style="font-family:'lucida grande', 'lucida sans unicode', verdana, arial, helvetica, sans-serif;font-size:10px;cursor:pointer;color:#909090;fill:#909090;" text-anchor="end" ><tspan x="1270"></tspan></text><g class="highcharts-tracker" ><g visibility="visible"  transform="translate(80,10)" clip-path="url(#highcharts-8)"><path fill="none" d="M 65.07142857142857 318.6 L 75.07142857142857 318.6 L 225.21428571428572 302.5 L 375.35714285714283 302.5 L 525.5 302.5 L 675.6428571428571 302.5 L 825.7857142857142 254.2 L 975.9285714285714 254.2 L 985.9285714285714 254.2"  stroke-linejoin="round" visibility="visible" stroke-opacity="0.0001" stroke="rgb(192,192,192)" stroke-width="22" style=""></path></g><g visibility="visible"  transform="translate(80,10)" clip-path="url(#highcharts-8)"><path fill="none" d="M 65.07142857142857 321.8 L 75.07142857142857 321.8 L 225.21428571428572 308.9 L 375.35714285714283 283.2 L 525.5 257.4 L 675.6428571428571 193.1 L 825.7857142857142 160.9 L 975.9285714285714 48.3 L 985.9285714285714 48.3"  stroke-linejoin="round" visibility="visible" stroke-opacity="0.0001" stroke="rgb(192,192,192)" stroke-width="22" style=""></path></g><g visibility="visible"  transform="translate(80,10)" clip-path="url(#highcharts-8)"><path fill="none" d="M 65.07142857142857 321.8 L 75.07142857142857 321.8 L 225.21428571428572 321.8 L 375.35714285714283 305.7 L 525.5 273.5 L 675.6428571428571 257.4 L 825.7857142857142 249.4 L 975.9285714285714 201.1 L 985.9285714285714 201.1"  stroke-linejoin="round" visibility="visible" stroke-opacity="0.0001" stroke="rgb(192,192,192)" stroke-width="22" style=""></path></g><g visibility="visible"  transform="translate(80,10)" clip-path="url(#highcharts-8)"><path fill="none" d="M 65.07142857142857 319.4 L 75.07142857142857 319.4 L 225.21428571428572 317.8 L 375.35714285714283 304.1 L 525.5 308.9 L 675.6428571428571 312.1 L 825.7857142857142 299.3 L 975.9285714285714 299.3 L 985.9285714285714 299.3"  stroke-linejoin="round" visibility="visible" stroke-opacity="0.0001" stroke="rgb(192,192,192)" stroke-width="22" style=""></path></g></g></svg>